<svg width="512" height="512" viewBox="0 0 512 512" xmlns="http://www.w3.org/2000/svg">

  <!-- Hintergrund -->
  <rect width="512" height="512" rx="90" fill="#1f2933"></rect>

  <!-- Kamera (links) -->
  <g transform="translate(96,256)">
    <rect x="-60" y="-30" width="80" height="60" rx="10" fill="#ffffff"></rect>
    <polygon points="20,-20 60,-35 60,35 20,20" fill="#ffffff"></polygon>
  </g>

  <!-- Mikrofon (Mitte) -->
  <g transform="translate(256,256)">
    <rect x="-20" y="-70" width="40" height="110" rx="20" fill="#ffffff"></rect>
    <rect x="-3" y="40" width="6" height="28" fill="#ffffff"></rect>
    <rect x="-25" y="68" width="50" height="10" rx="5" fill="#ffffff"></rect>
  </g>

  <!-- Lautsprecher (rechts) -->
  <g transform="translate(416,256)">
    <polygon points="-40,-25 -70,0 -90,0 -90,30 -70,30 -40,55" fill="#ffffff"></polygon>
    <path d="M-25 -10 Q5 15 -25 40" stroke="#ffffff" stroke-width="10" fill="none"></path>
    <path d="M-10 -25 Q35 15 -10 55" stroke="#ffffff" stroke-width="10" fill="none"></path>
  </g>

</svg>